<svg id="Layer_1" data-name="Layer 1" xmlns="http://www.w3.org/2000/svg" xmlns:xlink="http://www.w3.org/1999/xlink" viewBox="0 0 599.7 182.65"><defs><style>.cls-1{fill:url(#linear-gradient);}.cls-2{fill:url(#linear-gradient-2);}.cls-3{fill:url(#linear-gradient-3);}.cls-4{fill:#fff;}</style><linearGradient id="linear-gradient" x1="22.33" y1="2.97" x2="604.17" y2="92.1" gradientUnits="userSpaceOnUse"><stop offset="0" stop-color="#ef7d22"/><stop offset="0.23" stop-color="#ef741d"/><stop offset="0.62" stop-color="#ee5a10"/><stop offset="1" stop-color="#ee3b00"/></linearGradient><linearGradient id="linear-gradient-2" x1="15.15" y1="79.85" x2="592.51" y2="168.29" xlink:href="#linear-gradient"/><linearGradient id="linear-gradient-3" x1="6.09" y1="108.95" x2="587.94" y2="198.08" xlink:href="#linear-gradient"/></defs><path class="cls-1" d="M138.33,41.49a20.75,20.75,0,0,0,0-41.49,20.75,20.75,0,0,0,0,41.49Z"/><path class="cls-2" d="M488.87,55.42C441.08,38.15,382.66,30.1,305,30.1c-44.18,0-85.72,5-123.48,14.72-33.79,8.75-64.82,21.4-92.25,37.61C44.18,109.09,17.43,140,2.06,163.79a12.82,12.82,0,0,0,5.73,18.76h0c12.73-23,38.74-57.92,88.9-87.57,26.25-15.52,56-27.65,88.49-36.05C221.74,49.48,262.05,44.68,305,44.68c150.3,0,218.93,31.71,274.13,83.6A14.83,14.83,0,0,0,599.7,128h0C565.08,93,530.9,70.62,488.87,55.42Z"/><path class="cls-3" d="M70.94,95.06C63.42,76,49.92,60.53,31.48,49.69a13.89,13.89,0,0,0-19.74,6.45h0c22,9.09,37.8,24.37,45.64,44.27C64.73,119,65.1,141,58.75,163.75a15.82,15.82,0,0,0,9.06,18.8h0C79.9,151.62,81.1,120.82,70.94,95.06Z"/><rect class="cls-4" x="122.66" y="56.65" width="31.35" height="125.9"/><path class="cls-4" d="M317.39,57v95.68h-1.12a19.27,19.27,0,0,1-9.43-2.77,31.33,31.33,0,0,1-7.89-6.45L238.41,73.66a53.41,53.41,0,0,0-16.49-12.91c-5.73-2.66-12.91-4.1-21.2-4.1H169.06v126h30.43v-96h1.12a19.44,19.44,0,0,1,9.53,2.66A30.74,30.74,0,0,1,218,95.89l59.11,68.94a47.67,47.67,0,0,0,16.8,13.52c5.94,2.76,13.52,4.2,22.12,4.2h31.76l.2-125.9H317.39Z"/><path class="cls-4" d="M401.19,152.74c-4.51,0-6.66-2-6.66-5.84V134.3H538.25V104.49H394.53V92.1c0-3.79,2.25-5.64,6.66-5.64H539.73V56.65H401.19c-25.2,0-38.11,10.35-38.11,30.84v64c0,20.59,12.91,31,38.11,31H539.68V152.74Z"/></svg>